# xmcd
#
# Track frame offsets: 
#        150
#        12805
#        27522
#        40285
#        53582
#        68220
#        80407
#        94825
#        108692
#        122917
#        136837
#        150345
#        161757
#        173947
#        189370
#        203607
#        215382
#        229147
#        243942
#        255812
#        267297
#        280707
#        293007
#        307272
#
# Disc length: 4264 seconds
#
# Revision: 3
# Processed by: cddbd v1.5.2PL0 Copyright (c) Steve Scherf et al.
# Submitted via: ExactAudioCopy v0.99pb5
#
DISCID=4810a618
DTITLE=Floyd Dixon - His Complete Aladdin Recordings [CD2]
DYEAR=1996
DGENRE=Blues
TTITLE0=Real Lovin' Mama
TTITLE1=Unlucky Girl
TTITLE2=Evil Lover Blues
TTITLE3=Four Years
TTITLE4=Telephone Blues
TTITLE5=Blues For Cuba
TTITLE6=Time and Place
TTITLE7=You Need Me Now
TTITLE8=Broken Hearted Traveller
TTITLE9=Do I Love You
TTITLE10=A Long Time Ago
TTITLE11=Lovin' (Brought Me Into This World)
TTITLE12=I Paid The Price
TTITLE13=How Could You Be So Mean
TTITLE14=Mean Papa Blues
TTITLE15=My Wonderful One
TTITLE16=Too Much Jelly Roll
TTITLE17=Baby Let's Go Down To The Woods
TTITLE18=Tired, Broke and Busted
TTITLE19=Come Back Baby
TTITLE20=Call Operator 210
TTITLE21=Wine, Wine, Wine
TTITLE22=The River
TTITLE23=Red Cherries
EXTD=
EXTT0=
EXTT1=
EXTT2=
EXTT3=
EXTT4=
EXTT5=
EXTT6=
EXTT7=
EXTT8=
EXTT9=
EXTT10=
EXTT11=
EXTT12=
EXTT13=
EXTT14=
EXTT15=
EXTT16=
EXTT17=
EXTT18=
EXTT19=
EXTT20=
EXTT21=
EXTT22=
EXTT23=
PLAYORDER=
